<?xml version="1.0" encoding="UTF-8"?>
<!DOCTYPE svg PUBLIC "-//W3C//DTD SVG 1.1//EN" "http://www.w3.org/Graphics/SVG/1.1/DTD/svg11.dtd">
<svg xmlns="http://www.w3.org/2000/svg" version="1.1" width="500px" height="500px" style="shape-rendering:geometricPrecision; text-rendering:geometricPrecision; image-rendering:optimizeQuality; fill-rule:evenodd; clip-rule:evenodd" xmlns:xlink="http://www.w3.org/1999/xlink">
<g><path style="opacity:0.004" fill="#fefffe" d="M 378.5,16.5 C 379.833,17.1667 379.833,17.1667 378.5,16.5 Z"/></g>
<g><path style="opacity:0.004" fill="#fefffe" d="M 244.5,19.5 C 245.833,20.1667 245.833,20.1667 244.5,19.5 Z"/></g>
<g><path style="opacity:0.996" fill="#e45a5b" d="M 323.5,26.5 C 312.5,26.5 301.5,26.5 290.5,26.5C 301.496,23.9158 312.496,23.9158 323.5,26.5 Z"/></g>
<g><path style="opacity:0.655" fill="#db5d5f" d="M 287.5,26.5 C 284.456,28.0114 281.122,28.678 277.5,28.5C 280.589,27.2154 283.922,26.5488 287.5,26.5 Z"/></g>
<g><path style="opacity:0.945" fill="#da605a" d="M 325.5,26.5 C 329.078,26.5488 332.411,27.2154 335.5,28.5C 331.878,28.678 328.544,28.0114 325.5,26.5 Z"/></g>
<g><path style="opacity:0.647" fill="#d95d5f" d="M 335.5,28.5 C 340.264,28.7689 344.597,30.1022 348.5,32.5C 344.583,31.3633 340.583,30.53 336.5,30C 335.944,29.6174 335.611,29.1174 335.5,28.5 Z"/></g>
<g><path style="opacity:0.004" fill="#fefffe" d="M 190.5,31.5 C 191.833,32.1667 191.833,32.1667 190.5,31.5 Z"/></g>
<g><path style="opacity:1" fill="#e75c5e" d="M 277.5,28.5 C 273.498,30.6098 269.165,31.9431 264.5,32.5C 268.502,30.3902 272.835,29.0569 277.5,28.5 Z"/></g>
<g><path style="opacity:1" fill="#f05b5e" d="M 263.5,32.5 C 262.942,33.7899 261.942,34.6232 260.5,35C 261.167,35.3333 261.833,35.6667 262.5,36C 258.463,37.7679 254.13,38.6013 249.5,38.5C 253.679,35.5452 258.346,33.5452 263.5,32.5 Z"/></g>
<g><path style="opacity:1" fill="#f05c5b" d="M 348.5,32.5 C 355.467,33.8213 361.8,36.4879 367.5,40.5C 364.507,41.1346 361.507,41.3013 358.5,41C 356.109,39.6914 356.109,38.6914 358.5,38C 354.796,36.6188 351.463,34.7855 348.5,32.5 Z"/></g>
<g><path style="opacity:0.004" fill="#fefffe" d="M 117.5,43.5 C 118.833,44.1667 118.833,44.1667 117.5,43.5 Z"/></g>
<g><path style="opacity:0.004" fill="#fefffe" d="M 452.5,45.5 C 453.833,46.1667 453.833,46.1667 452.5,45.5 Z"/></g>
<g><path style="opacity:1" fill="#ec5d5d" d="M 367.5,40.5 C 375.369,43.9293 382.369,48.596 388.5,54.5C 382.828,51.0667 377.161,48.2334 371.5,46C 369.536,44.549 368.203,42.7157 367.5,40.5 Z"/></g>
<g><path style="opacity:1" fill="#f2595d" d="M 237.5,45.5 C 234.16,48.4052 231.16,51.7385 228.5,55.5C 226.45,55.7437 224.45,56.077 222.5,56.5C 226.652,51.6817 231.652,48.015 237.5,45.5 Z"/></g>
<g><path style="opacity:0.004" fill="#fefffe" d="M 127.5,57.5 C 128.833,58.1667 128.833,58.1667 127.5,57.5 Z"/></g>
<g><path style="opacity:0.835" fill="#df5c61" d="M 392.5,57.5 C 395.167,59.5 397.5,61.8333 399.5,64.5C 396.122,63.1221 393.789,60.7888 392.5,57.5 Z"/></g>
<g><path style="opacity:0.004" fill="#fefffe" d="M 35.5,60.5 C 36.8333,61.1667 36.8333,61.1667 35.5,60.5 Z"/></g>
<g><path style="opacity:0.886" fill="#df5f63" d="M 219.5,59.5 C 217.5,62.1667 215.167,64.5 212.5,66.5C 213.833,63.1667 216.167,60.8333 219.5,59.5 Z"/></g>
<g><path style="opacity:0.863" fill="#dd5f60" d="M 210.5,68.5 C 209.581,71.0892 207.914,73.0892 205.5,74.5C 206.419,71.9108 208.086,69.9108 210.5,68.5 Z"/></g>
<g><path style="opacity:1" fill="#ef5c5d" d="M 399.5,64.5 C 403.922,68.5873 407.589,73.2539 410.5,78.5C 406.691,78.4663 404.857,76.4663 405,72.5C 402.406,70.2964 400.572,67.6297 399.5,64.5 Z"/></g>
<g><path style="opacity:1" fill="#ed595d" d="M 410.5,78.5 C 412.9,80.2964 414.567,82.6298 415.5,85.5C 414.18,84.0582 412.514,83.3915 410.5,83.5C 410.5,81.8333 410.5,80.1667 410.5,78.5 Z"/></g>
<g><path style="opacity:1" fill="#fd5757" d="M 287.5,26.5 C 288.5,26.5 289.5,26.5 290.5,26.5C 301.5,26.5 312.5,26.5 323.5,26.5C 324.167,26.5 324.833,26.5 325.5,26.5C 328.544,28.0114 331.878,28.678 335.5,28.5C 335.611,29.1174 335.944,29.6174 336.5,30C 340.583,30.53 344.583,31.3633 348.5,32.5C 351.463,34.7855 354.796,36.6188 358.5,38C 356.109,38.6914 356.109,39.6914 358.5,41C 361.507,41.3013 364.507,41.1346 367.5,40.5C 368.203,42.7157 369.536,44.549 371.5,46C 377.161,48.2334 382.828,51.0667 388.5,54.5C 389.833,55.5 391.167,56.5 392.5,57.5C 393.789,60.7888 396.122,63.1221 399.5,64.5C 400.572,67.6297 402.406,70.2964 405,72.5C 404.857,76.4663 406.691,78.4663 410.5,78.5C 410.5,80.1667 410.5,81.8333 410.5,83.5C 412.514,83.3915 414.18,84.0582 415.5,85.5C 419.26,90.6837 422.26,96.3504 424.5,102.5C 424.166,105.491 425.166,107.824 427.5,109.5C 427.5,109.833 427.5,110.167 427.5,110.5C 427.132,114.044 428.132,117.044 430.5,119.5C 435.212,135.111 436.545,151.111 434.5,167.5C 433.778,167.918 433.278,168.584 433,169.5C 432.502,172.817 432.335,176.15 432.5,179.5C 431.359,181.667 430.359,184 429.5,186.5C 427.833,187.333 426.167,188.167 424.5,189C 429.318,191.076 429.485,193.242 425,195.5C 424.055,195.095 423.388,194.428 423,193.5C 423.196,197.791 423.363,202.124 423.5,206.5C 422.535,211.098 420.535,215.098 417.5,218.5C 415.468,219.048 414.468,220.381 414.5,222.5C 412.436,222.687 410.436,223.187 408.5,224C 410.283,225.067 410.783,226.567 410,228.5C 409.586,228.043 409.086,227.709 408.5,227.5C 407.534,229.396 407.201,231.396 407.5,233.5C 406.127,233.343 404.793,233.51 403.5,234C 403.957,234.414 404.291,234.914 404.5,235.5C 401.853,238.157 398.853,240.323 395.5,242C 394.663,243.011 394.33,244.178 394.5,245.5C 393.022,245.238 391.689,245.571 390.5,246.5C 391.246,247.736 391.579,249.07 391.5,250.5C 390.055,252.063 388.389,253.396 386.5,254.5C 384.821,254.285 383.821,254.952 383.5,256.5C 382.305,256.322 381.138,255.989 380,255.5C 378.005,258.735 375.172,261.735 371.5,264.5C 370.71,265.401 369.71,266.068 368.5,266.5C 365.882,266.779 363.382,267.446 361,268.5C 360.667,268.167 360.333,267.833 360,267.5C 359.517,268.448 359.351,269.448 359.5,270.5C 357.473,270.338 355.473,270.505 353.5,271C 353.833,271.333 354.167,271.667 354.5,272C 353.128,272.402 351.795,272.902 350.5,273.5C 346.305,270.745 345.305,271.412 347.5,275.5C 344.658,276.004 343.325,277.671 343.5,280.5C 342.5,280.5 341.5,280.5 340.5,280.5C 340.5,281.5 340.5,282.5 340.5,283.5C 339.167,285.5 337.5,287.167 335.5,288.5C 333.263,289.449 330.929,290.116 328.5,290.5C 328.5,292.167 328.5,293.833 328.5,295.5C 324.167,300.5 319.5,305.167 314.5,309.5C 309.966,307.974 305.633,305.974 301.5,303.5C 300.304,303.846 300.304,304.346 301.5,305C 299.481,305.45 297.648,306.283 296,307.5C 296,306.167 296,304.833 296,303.5C 294.853,302.542 293.853,302.875 293,304.5C 292.529,302.754 291.862,301.087 291,299.5C 290.617,300.056 290.117,300.389 289.5,300.5C 288.078,299.075 286.411,298.075 284.5,297.5C 277.833,291.5 271.5,285.167 265.5,278.5C 264.089,276.086 262.089,274.419 259.5,273.5C 248.012,269.264 237.678,263.264 228.5,255.5C 227.415,253.413 225.749,252.08 223.5,251.5C 204.544,236.279 191.544,216.945 184.5,193.5C 183.69,184.402 181.69,175.735 178.5,167.5C 177.009,154.025 177.676,140.692 180.5,127.5C 182.163,125.562 182.829,123.228 182.5,120.5C 183.527,114.085 185.527,108.085 188.5,102.5C 191.375,100.751 192.708,98.0848 192.5,94.5C 195.841,87.1429 200.174,80.4763 205.5,74.5C 207.914,73.0892 209.581,71.0892 210.5,68.5C 210.833,67.5 211.5,66.8333 212.5,66.5C 215.167,64.5 217.5,62.1667 219.5,59.5C 220.167,58.1667 221.167,57.1667 222.5,56.5C 224.45,56.077 226.45,55.7437 228.5,55.5C 231.16,51.7385 234.16,48.4052 237.5,45.5C 240.976,42.3768 244.976,40.0435 249.5,38.5C 254.13,38.6013 258.463,37.7679 262.5,36C 261.833,35.6667 261.167,35.3333 260.5,35C 261.942,34.6232 262.942,33.7899 263.5,32.5C 263.833,32.5 264.167,32.5 264.5,32.5C 269.165,31.9431 273.498,30.6098 277.5,28.5C 281.122,28.678 284.456,28.0114 287.5,26.5 Z M 299.5,51.5 C 307.525,51.3903 315.525,51.7237 323.5,52.5C 324.167,52.5 324.833,52.5 325.5,52.5C 332.165,54.1709 338.832,56.1709 345.5,58.5C 345.833,58.5 346.167,58.5 346.5,58.5C 352.001,61.7511 357.667,64.7511 363.5,67.5C 366.851,70.8482 370.518,73.8482 374.5,76.5C 375.585,78.5869 377.251,79.9202 379.5,80.5C 379.5,80.8333 379.5,81.1667 379.5,81.5C 383.195,85.5259 386.862,89.5259 390.5,93.5C 393.821,99.4728 397.155,105.473 400.5,111.5C 404.123,120.674 406.79,130.007 408.5,139.5C 408.5,148.833 408.5,158.167 408.5,167.5C 407.042,173.683 405.709,180.016 404.5,186.5C 400.713,195.407 396.38,204.073 391.5,212.5C 387.155,216.847 383.155,221.514 379.5,226.5C 374.514,230.155 369.847,234.155 365.5,238.5C 355.077,244.88 344.077,249.88 332.5,253.5C 324.053,254.722 315.72,255.722 307.5,256.5C 306.833,256.5 306.167,256.5 305.5,256.5C 294.82,255.782 284.153,254.115 273.5,251.5C 267.568,248.872 261.568,246.205 255.5,243.5C 248.857,238.531 242.19,233.531 235.5,228.5C 231.511,223.179 227.178,218.179 222.5,213.5C 221.66,211.147 220.326,209.147 218.5,207.5C 211.417,194.583 206.751,180.917 204.5,166.5C 204.5,157.833 204.5,149.167 204.5,140.5C 205.434,137.344 206.101,134.011 206.5,130.5C 206.5,130.167 206.5,129.833 206.5,129.5C 207.969,125.313 209.302,120.98 210.5,116.5C 215.625,104.926 222.292,94.2597 230.5,84.5C 233.833,81.8333 236.833,78.8333 239.5,75.5C 240.167,75.5 240.5,75.1667 240.5,74.5C 245.505,71.1592 250.505,67.8259 255.5,64.5C 259.5,62.5 263.5,60.5 267.5,58.5C 271.352,57.3953 275.018,56.062 278.5,54.5C 278.833,54.5 279.167,54.5 279.5,54.5C 282.373,54.1977 285.039,53.531 287.5,52.5C 291.534,52.4955 295.534,52.1621 299.5,51.5 Z"/></g>
<g><path style="opacity:1" fill="#ea5c60" d="M 379.5,81.5 C 381.84,82.086 384.007,83.086 386,84.5C 386.333,84.1667 386.667,83.8333 387,83.5C 387.348,87.1803 388.515,90.5136 390.5,93.5C 386.862,89.5259 383.195,85.5259 379.5,81.5 Z"/></g>
<g><path style="opacity:1" fill="#eb5c61" d="M 239.5,75.5 C 236.833,78.8333 233.833,81.8333 230.5,84.5C 230.586,83.5041 230.252,82.6708 229.5,82C 230.448,81.5172 231.448,81.3505 232.5,81.5C 233.387,80.0384 234.387,78.205 235.5,76C 236.793,75.51 238.127,75.3433 239.5,75.5 Z"/></g>
<g><path style="opacity:0.945" fill="#db5a60" d="M 374.5,76.5 C 376.749,77.0798 378.415,78.4131 379.5,80.5C 377.251,79.9202 375.585,78.5869 374.5,76.5 Z"/></g>
<g><path style="opacity:1" fill="#f25959" d="M 255.5,64.5 C 250.505,67.8259 245.505,71.1592 240.5,74.5C 241.526,68.7691 244.693,64.7691 250,62.5C 251.8,63.3784 253.633,64.045 255.5,64.5 Z"/></g>
<g><path style="opacity:1" fill="#ea5d5f" d="M 346.5,58.5 C 353.904,58.4825 359.57,61.4825 363.5,67.5C 357.667,64.7511 352.001,61.7511 346.5,58.5 Z"/></g>
<g><path style="opacity:0.949" fill="#e15e60" d="M 278.5,54.5 C 275.018,56.062 271.352,57.3953 267.5,58.5C 270.436,55.4635 274.102,54.1302 278.5,54.5 Z"/></g>
<g><path style="opacity:1" fill="#ee5b5d" d="M 325.5,52.5 C 330.845,52.6865 336.178,53.0199 341.5,53.5C 341.5,54.5 341.5,55.5 341.5,56.5C 343.38,56.2291 344.713,56.8958 345.5,58.5C 338.832,56.1709 332.165,54.1709 325.5,52.5 Z"/></g>
<g><path style="opacity:0.584" fill="#df5d5f" d="M 287.5,52.5 C 285.039,53.531 282.373,54.1977 279.5,54.5C 281.635,52.631 284.302,51.9644 287.5,52.5 Z"/></g>
<g><path style="opacity:1" fill="#e6615f" d="M 299.5,51.5 C 303.319,50.8344 307.319,50.5011 311.5,50.5C 315.893,50.5093 319.893,51.176 323.5,52.5C 315.525,51.7237 307.525,51.3903 299.5,51.5 Z"/></g>
<g><path style="opacity:0.004" fill="#fefffe" d="M 495.5,89.5 C 496.833,90.1667 496.833,90.1667 495.5,89.5 Z"/></g>
<g><path style="opacity:0.004" fill="#fefffe" d="M 44.5,90.5 C 45.8333,91.1667 45.8333,91.1667 44.5,90.5 Z"/></g>
<g><path style="opacity:0.004" fill="#fefffe" d="M 183.5,94.5 C 184.833,95.1667 184.833,95.1667 183.5,94.5 Z"/></g>
<g><path style="opacity:1" fill="#e45d5e" d="M 192.5,94.5 C 192.708,98.0848 191.375,100.751 188.5,102.5C 189.326,99.5152 190.659,96.8485 192.5,94.5 Z"/></g>
<g><path style="opacity:1" fill="#df5e61" d="M 280.5,99.5 C 283.135,100.811 285.469,102.478 287.5,104.5C 283.86,104.525 281.527,102.858 280.5,99.5 Z"/></g>
<g><path style="opacity:1" fill="#df5f61" d="M 424.5,102.5 C 426.065,104.509 427.065,106.843 427.5,109.5C 425.166,107.824 424.166,105.491 424.5,102.5 Z"/></g>
<g><path style="opacity:1" fill="#fe5657" d="M 280.5,99.5 C 281.527,102.858 283.86,104.525 287.5,104.5C 291.173,106 294.506,108 297.5,110.5C 300.636,114.276 304.636,116.942 309.5,118.5C 309.5,119.5 309.5,120.5 309.5,121.5C 312.588,121.197 314.254,122.53 314.5,125.5C 317.127,126.092 319.794,126.425 322.5,126.5C 325.167,128.167 327.833,129.833 330.5,131.5C 330.5,132.833 330.5,134.167 330.5,135.5C 332.429,135.231 334.095,135.731 335.5,137C 332.77,138.232 332.937,139.065 336,139.5C 338.474,139.59 340.974,139.924 343.5,140.5C 343.833,140.5 344.167,140.5 344.5,140.5C 345.663,142.982 347.663,144.316 350.5,144.5C 353.167,146.167 355.833,147.833 358.5,149.5C 359.865,151.591 360.532,153.924 360.5,156.5C 353.665,158.754 347.331,161.754 341.5,165.5C 341.5,166.5 341.5,167.5 341.5,168.5C 339.067,168.273 337.401,169.273 336.5,171.5C 331.916,170.969 328.416,172.635 326,176.5C 325.086,175.346 324.253,175.513 323.5,177C 325.619,177.342 325.953,178.175 324.5,179.5C 323.101,180.89 321.434,181.89 319.5,182.5C 315.162,180.335 313.162,181.669 313.5,186.5C 311.453,186.511 309.453,186.844 307.5,187.5C 303.575,192.226 298.575,195.226 292.5,196.5C 292.5,197.833 292.5,199.167 292.5,200.5C 292.167,200.5 291.833,200.5 291.5,200.5C 288.296,201.83 284.962,202.996 281.5,204C 279.968,204.7 278.968,205.866 278.5,207.5C 277.311,208.429 275.978,208.762 274.5,208.5C 274.5,171.833 274.5,135.167 274.5,98.5C 276.5,98.8333 278.5,99.1667 280.5,99.5 Z"/></g>
<g><path style="opacity:0.8" fill="#dd6061" d="M 297.5,110.5 C 301.795,112.808 305.795,115.474 309.5,118.5C 304.636,116.942 300.636,114.276 297.5,110.5 Z"/></g>
<g><path style="opacity:0.004" fill="#fefffe" d="M 479.5,114.5 C 480.833,115.167 480.833,115.167 479.5,114.5 Z"/></g>
<g><path style="opacity:0.004" fill="#fefffe" d="M 102.5,115.5 C 103.833,116.167 103.833,116.167 102.5,115.5 Z"/></g>
<g><path style="opacity:1" fill="#e05d61" d="M 427.5,110.5 C 429.472,113.084 430.472,116.084 430.5,119.5C 428.132,117.044 427.132,114.044 427.5,110.5 Z"/></g>
<g><path style="opacity:1" fill="#ee5a5e" d="M 309.5,118.5 C 314.009,120.919 318.342,123.586 322.5,126.5C 319.794,126.425 317.127,126.092 314.5,125.5C 314.254,122.53 312.588,121.197 309.5,121.5C 309.5,120.5 309.5,119.5 309.5,118.5 Z"/></g>
<g><path style="opacity:0.976" fill="#e95b61" d="M 400.5,111.5 C 402.136,112.749 403.303,114.416 404,116.5C 407.222,123.829 408.722,131.496 408.5,139.5C 406.79,130.007 404.123,120.674 400.5,111.5 Z"/></g>
<g><path style="opacity:0.953" fill="#df605f" d="M 182.5,120.5 C 182.829,123.228 182.163,125.562 180.5,127.5C 180.721,124.933 181.388,122.599 182.5,120.5 Z"/></g>
<g><path style="opacity:0.969" fill="#e35d5f" d="M 210.5,116.5 C 209.302,120.98 207.969,125.313 206.5,129.5C 205.663,124.364 206.997,120.031 210.5,116.5 Z"/></g>
<g><path style="opacity:0.973" fill="#de5e5b" d="M 206.5,130.5 C 206.101,134.011 205.434,137.344 204.5,140.5C 204.336,137.813 204.503,135.146 205,132.5C 205.278,131.584 205.778,130.918 206.5,130.5 Z"/></g>
<g><path style="opacity:0.004" fill="#fefffe" d="M 461.5,136.5 C 462.833,137.167 462.833,137.167 461.5,136.5 Z"/></g>
<g><path style="opacity:0.004" fill="#fefffe" d="M 164.5,137.5 C 165.833,138.167 165.833,138.167 164.5,137.5 Z"/></g>
<g><path style="opacity:1" fill="#ef5b5b" d="M 330.5,131.5 C 335.132,134.143 339.465,137.143 343.5,140.5C 340.974,139.924 338.474,139.59 336,139.5C 332.937,139.065 332.77,138.232 335.5,137C 334.095,135.731 332.429,135.231 330.5,135.5C 330.5,134.167 330.5,132.833 330.5,131.5 Z"/></g>
<g><path style="opacity:0.988" fill="#da5e5e" d="M 344.5,140.5 C 346.795,141.475 348.795,142.808 350.5,144.5C 347.663,144.316 345.663,142.982 344.5,140.5 Z"/></g>
<g><path style="opacity:0.031" fill="#db5f5f" d="M 280.5,99.5 C 278.5,99.1667 276.5,98.8333 274.5,98.5C 274.5,135.167 274.5,171.833 274.5,208.5C 274.5,209.833 275.167,210.5 276.5,210.5C 275.791,211.404 274.791,211.737 273.5,211.5C 273.333,173.165 273.5,134.832 274,96.5C 274.333,96.1667 274.667,95.8333 275,95.5C 276.812,96.9771 278.645,98.3104 280.5,99.5 Z"/></g>
<g><path style="opacity:0.004" fill="#fefffe" d="M 80.5,152.5 C 81.8333,153.167 81.8333,153.167 80.5,152.5 Z"/></g>
<g><path style="opacity:1" fill="#df605e" d="M 358.5,149.5 C 360.754,150.415 362.754,151.748 364.5,153.5C 363.533,154.984 362.2,155.984 360.5,156.5C 360.532,153.924 359.865,151.591 358.5,149.5 Z"/></g>
<g><path style="opacity:1" fill="#e95b5e" d="M 360.5,156.5 C 354.344,160.747 348.01,164.747 341.5,168.5C 341.5,167.5 341.5,166.5 341.5,165.5C 347.331,161.754 353.665,158.754 360.5,156.5 Z"/></g>
<g><path style="opacity:0.545" fill="#d85e61" d="M 341.5,168.5 C 340.341,170.25 338.674,171.25 336.5,171.5C 337.401,169.273 339.067,168.273 341.5,168.5 Z"/></g>
<g><path style="opacity:0.004" fill="#fefffe" d="M 5.5,172.5 C 6.83333,173.167 6.83333,173.167 5.5,172.5 Z"/></g>
<g><path style="opacity:1" fill="#ef595c" d="M 336.5,171.5 C 332.852,174.66 328.852,177.327 324.5,179.5C 325.953,178.175 325.619,177.342 323.5,177C 324.253,175.513 325.086,175.346 326,176.5C 328.416,172.635 331.916,170.969 336.5,171.5 Z"/></g>
<g><path style="opacity:0.841" fill="#e05d5d" d="M 434.5,167.5 C 434.283,171.705 433.617,175.705 432.5,179.5C 432.335,176.15 432.502,172.817 433,169.5C 433.278,168.584 433.778,167.918 434.5,167.5 Z"/></g>
<g><path style="opacity:1" fill="#e85c5d" d="M 178.5,167.5 C 181.69,175.735 183.69,184.402 184.5,193.5C 181.117,185.269 179.117,176.603 178.5,167.5 Z"/></g>
<g><path style="opacity:1" fill="#ea5b5c" d="M 408.5,167.5 C 408.272,171.39 408.606,175.224 409.5,179C 408.99,180.826 408.156,180.993 407,179.5C 406.667,181.5 406.333,183.5 406,185.5C 405.617,186.056 405.117,186.389 404.5,186.5C 405.709,180.016 407.042,173.683 408.5,167.5 Z"/></g>
<g><path style="opacity:1" fill="#ef585f" d="M 319.5,182.5 C 317.853,184.326 315.853,185.66 313.5,186.5C 313.162,181.669 315.162,180.335 319.5,182.5 Z"/></g>
<g><path style="opacity:1" fill="#f3595a" d="M 432.5,179.5 C 431.271,189.188 428.271,198.188 423.5,206.5C 423.363,202.124 423.196,197.791 423,193.5C 423.388,194.428 424.055,195.095 425,195.5C 429.485,193.242 429.318,191.076 424.5,189C 426.167,188.167 427.833,187.333 429.5,186.5C 430.359,184 431.359,181.667 432.5,179.5 Z"/></g>
<g><path style="opacity:1" fill="#ec595e" d="M 313.5,186.5 C 306.709,191.402 299.709,196.068 292.5,200.5C 292.5,199.167 292.5,197.833 292.5,196.5C 298.575,195.226 303.575,192.226 307.5,187.5C 309.453,186.844 311.453,186.511 313.5,186.5 Z"/></g>
<g><path style="opacity:1" fill="#f65959" d="M 204.5,166.5 C 206.751,180.917 211.417,194.583 218.5,207.5C 218.5,208.167 218.5,208.833 218.5,209.5C 217.288,208.77 216.288,207.77 215.5,206.5C 214.264,207.246 212.93,207.579 211.5,207.5C 212.323,204.275 212.656,201.109 212.5,198C 208.889,197.744 207.889,196.078 209.5,193C 208.392,189.147 207.225,185.314 206,181.5C 204.915,183.657 203.749,183.824 202.5,182C 203.167,181.667 203.833,181.333 204.5,181C 203.5,180 202.5,179 201.5,178C 201.487,174.235 201.821,170.402 202.5,166.5C 203.776,171.682 204.443,171.682 204.5,166.5 Z"/></g>
<g><path style="opacity:0.004" fill="#fefffe" d="M 46.5,202.5 C 47.8333,203.167 47.8333,203.167 46.5,202.5 Z"/></g>
<g><path style="opacity:1" fill="#ec5a5e" d="M 404.5,186.5 C 404.896,189.044 404.229,191.211 402.5,193C 402.665,194.117 402.998,195.284 403.5,196.5C 400.684,199.456 398.35,202.789 396.5,206.5C 395.691,208.071 395.357,209.738 395.5,211.5C 394.041,211.433 392.708,211.766 391.5,212.5C 396.38,204.073 400.713,195.407 404.5,186.5 Z"/></g>
<g><path style="opacity:0.004" fill="#fefffe" d="M 72.5,208.5 C 73.8333,209.167 73.8333,209.167 72.5,208.5 Z"/></g>
<g><path style="opacity:1" fill="#ed595e" d="M 291.5,200.5 C 286.709,204.068 281.709,207.402 276.5,210.5C 275.167,210.5 274.5,209.833 274.5,208.5C 275.978,208.762 277.311,208.429 278.5,207.5C 278.968,205.866 279.968,204.7 281.5,204C 284.962,202.996 288.296,201.83 291.5,200.5 Z"/></g>
<g><path style="opacity:0.51" fill="#d95f63" d="M 218.5,207.5 C 220.326,209.147 221.66,211.147 222.5,213.5C 220.806,212.473 219.473,211.139 218.5,209.5C 218.5,208.833 218.5,208.167 218.5,207.5 Z"/></g>
<g><path style="opacity:0.004" fill="#fefffe" d="M 468.5,214.5 C 469.833,215.167 469.833,215.167 468.5,214.5 Z"/></g>
<g><path style="opacity:1" fill="#ec5a5b" d="M 417.5,218.5 C 414.944,224.049 411.61,229.049 407.5,233.5C 407.201,231.396 407.534,229.396 408.5,227.5C 409.086,227.709 409.586,228.043 410,228.5C 410.783,226.567 410.283,225.067 408.5,224C 410.436,223.187 412.436,222.687 414.5,222.5C 414.468,220.381 415.468,219.048 417.5,218.5 Z"/></g>
<g><path style="opacity:1" fill="#ef5a5b" d="M 391.5,212.5 C 391.657,213.873 391.49,215.207 391,216.5C 386.635,218.884 383.968,222.551 383,227.5C 381.989,226.663 380.822,226.33 379.5,226.5C 383.155,221.514 387.155,216.847 391.5,212.5 Z"/></g>
<g><path style="opacity:1" fill="#ed5a5d" d="M 235.5,228.5 C 242.19,233.531 248.857,238.531 255.5,243.5C 252.148,242.992 249.148,241.658 246.5,239.5C 245.377,241.289 244.044,241.622 242.5,240.5C 243.326,239.549 243.492,238.549 243,237.5C 240.583,234.266 238.083,231.266 235.5,228.5 Z"/></g>
<g><path style="opacity:1" fill="#ed5b5d" d="M 407.5,233.5 C 402.871,239.797 397.538,245.463 391.5,250.5C 391.579,249.07 391.246,247.736 390.5,246.5C 391.689,245.571 393.022,245.238 394.5,245.5C 394.33,244.178 394.663,243.011 395.5,242C 398.853,240.323 401.853,238.157 404.5,235.5C 404.291,234.914 403.957,234.414 403.5,234C 404.793,233.51 406.127,233.343 407.5,233.5 Z"/></g>
<g><path style="opacity:0.004" fill="#fefffe" d="M 128.5,247.5 C 129.833,248.167 129.833,248.167 128.5,247.5 Z"/></g>
<g><path style="opacity:1" fill="#e25f5f" d="M 255.5,243.5 C 261.568,246.205 267.568,248.872 273.5,251.5C 267.245,250.541 261.245,248.708 255.5,246C 256.598,245.23 256.598,244.397 255.5,243.5 Z"/></g>
<g><path style="opacity:0.004" fill="#fefffe" d="M 52.5,250.5 C 53.8333,251.167 53.8333,251.167 52.5,250.5 Z"/></g>
<g><path style="opacity:1" fill="#f6595a" d="M 365.5,238.5 C 365.196,239.15 364.863,239.817 364.5,240.5C 366.327,242.487 367.327,244.821 367.5,247.5C 365.857,247.48 364.524,248.147 363.5,249.5C 361.164,248.406 361.164,247.073 363.5,245.5C 361.257,244.526 358.924,244.192 356.5,244.5C 356.5,245.5 356.5,246.5 356.5,247.5C 352.995,246.891 350.328,248.058 348.5,251C 349.449,251.617 350.282,251.451 351,250.5C 351.692,251.025 352.192,251.692 352.5,252.5C 350.728,255.277 348.895,255.61 347,253.5C 346.667,253.833 346.333,254.167 346,254.5C 343.018,251.857 340.851,251.857 339.5,254.5C 337.253,253.626 334.92,253.292 332.5,253.5C 344.077,249.88 355.077,244.88 365.5,238.5 Z"/></g>
<g><path style="opacity:1" fill="#d96165" d="M 223.5,251.5 C 225.749,252.08 227.415,253.413 228.5,255.5C 226.251,254.92 224.585,253.587 223.5,251.5 Z"/></g>
<g><path style="opacity:0.749" fill="#d96260" d="M 386.5,254.5 C 385.71,255.401 384.71,256.068 383.5,256.5C 383.821,254.952 384.821,254.285 386.5,254.5 Z"/></g>
<g><path style="opacity:0.004" fill="#fefffe" d="M 427.5,254.5 C 428.833,255.167 428.833,255.167 427.5,254.5 Z"/></g>
<g><path style="opacity:0.094" fill="#e35d5d" d="M 273.5,251.5 C 284.153,254.115 294.82,255.782 305.5,256.5C 297.21,257.004 289.043,256.337 281,254.5C 277.72,255.768 275.22,254.768 273.5,251.5 Z"/></g>
<g><path style="opacity:0.949" fill="#e55e5e" d="M 332.5,253.5 C 331.192,254.232 329.858,255.066 328.5,256C 321.508,256.5 314.508,256.666 307.5,256.5C 315.72,255.722 324.053,254.722 332.5,253.5 Z"/></g>
<g><path style="opacity:0.004" fill="#fefffe" d="M 46.5,257.5 C 47.8333,258.167 47.8333,258.167 46.5,257.5 Z"/></g>
<g><path style="opacity:1" fill="#ec5d5a" d="M 383.5,256.5 C 380.197,260.156 376.197,262.822 371.5,264.5C 375.172,261.735 378.005,258.735 380,255.5C 381.138,255.989 382.305,256.322 383.5,256.5 Z"/></g>
<g><path style="opacity:1" fill="#e85e61" d="M 368.5,266.5 C 365.744,268.204 362.744,269.537 359.5,270.5C 359.351,269.448 359.517,268.448 360,267.5C 360.333,267.833 360.667,268.167 361,268.5C 363.382,267.446 365.882,266.779 368.5,266.5 Z"/></g>
<g><path style="opacity:0.004" fill="#fefffe" d="M 58.5,271.5 C 59.8333,272.167 59.8333,272.167 58.5,271.5 Z"/></g>
<g><path style="opacity:0.835" fill="#dd6360" d="M 259.5,273.5 C 262.089,274.419 264.089,276.086 265.5,278.5C 262.911,277.581 260.911,275.914 259.5,273.5 Z"/></g>
<g><path style="opacity:1" fill="#ed5b5f" d="M 359.5,270.5 C 356.823,272.46 353.823,273.96 350.5,275C 347.588,278.419 344.254,281.252 340.5,283.5C 340.5,282.5 340.5,281.5 340.5,280.5C 341.5,280.5 342.5,280.5 343.5,280.5C 343.325,277.671 344.658,276.004 347.5,275.5C 345.305,271.412 346.305,270.745 350.5,273.5C 351.795,272.902 353.128,272.402 354.5,272C 354.167,271.667 353.833,271.333 353.5,271C 355.473,270.505 357.473,270.338 359.5,270.5 Z"/></g>
<g><path style="opacity:0.004" fill="#fefffe" d="M 63.5,278.5 C 64.8333,279.167 64.8333,279.167 63.5,278.5 Z"/></g>
<g><path style="opacity:0.475" fill="#d45a58" d="M 190.5,285.5 C 144.519,284.525 98.5194,284.192 52.5,284.5C 52.5,345.833 52.5,407.167 52.5,468.5C 52.5,468.833 52.5,469.167 52.5,469.5C 51.5009,407.669 51.1676,345.669 51.5,283.5C 96.5012,283.333 141.501,283.5 186.5,284C 188.058,284.21 189.391,284.71 190.5,285.5 Z"/></g>
<g><path style="opacity:1" fill="#fe5657" d="M 190.5,285.5 C 202.462,289.262 214.128,293.596 225.5,298.5C 227.761,299.59 229.594,301.256 231,303.5C 231.725,302.941 232.558,302.608 233.5,302.5C 235.972,303.992 238.639,304.658 241.5,304.5C 241.987,305.473 242.487,306.473 243,307.5C 247.364,306.294 247.531,306.794 243.5,309C 247.476,308.364 251.476,308.531 255.5,309.5C 256.722,310.937 256.722,312.437 255.5,314C 256.098,315.301 257.098,316.135 258.5,316.5C 260.638,315.757 262.804,315.09 265,314.5C 267.102,315.038 267.935,316.038 267.5,317.5C 269.071,316.691 270.738,316.357 272.5,316.5C 272.351,317.552 272.517,318.552 273,319.5C 277.605,318.034 281.439,319.201 284.5,323C 288.114,323.936 291.78,324.436 295.5,324.5C 295.833,324.5 296.167,324.5 296.5,324.5C 297.364,327.048 298.697,329.381 300.5,331.5C 301.842,333.005 303.508,333.672 305.5,333.5C 305.5,335.167 305.5,336.833 305.5,338.5C 306.873,338.343 308.207,338.51 309.5,339C 308.152,341.342 306.819,343.675 305.5,346C 305.509,347.404 306.009,348.57 307,349.5C 307.614,345.921 309.448,343.254 312.5,341.5C 314.791,342.896 315.125,344.729 313.5,347C 313.854,349.264 314.854,351.098 316.5,352.5C 317.192,351.975 317.692,351.308 318,350.5C 320.434,357.055 321.101,363.722 320,370.5C 320.5,370 321,369.5 321.5,369C 334.496,368.5 347.496,368.333 360.5,368.5C 361.167,368.5 361.833,368.5 362.5,368.5C 365.123,370.265 368.123,370.932 371.5,370.5C 371.833,370.5 372.167,370.5 372.5,370.5C 376.513,373.84 381.18,376.173 386.5,377.5C 387.5,378.167 388.5,378.833 389.5,379.5C 390.833,382.833 393.167,385.167 396.5,386.5C 399.891,390.615 402.224,395.282 403.5,400.5C 403.125,405.911 404.125,410.911 406.5,415.5C 407.774,422.296 407.774,428.963 406.5,435.5C 404.354,435.878 402.187,436.212 400,436.5C 398.342,436.325 397.009,435.658 396,434.5C 395.648,436.247 395.148,437.914 394.5,439.5C 393.791,440.404 392.791,440.737 391.5,440.5C 388.751,440.726 386.084,440.393 383.5,439.5C 383.264,440.247 382.93,441.08 382.5,442C 378.475,442.183 375.142,443.683 372.5,446.5C 369.428,446.183 366.428,446.516 363.5,447.5C 356.849,449.774 350.182,451.774 343.5,453.5C 342.807,454.518 342.141,455.518 341.5,456.5C 341.167,456.5 340.833,456.5 340.5,456.5C 337.794,456.575 335.127,456.908 332.5,457.5C 332.5,456.5 332.5,455.5 332.5,454.5C 328.108,453.912 323.774,453.912 319.5,454.5C 322.791,455.825 325.791,457.491 328.5,459.5C 323.453,460.718 318.786,462.384 314.5,464.5C 311.319,464.258 308.319,464.258 305.5,464.5C 304.15,463.05 302.484,462.383 300.5,462.5C 300.561,464.592 301.561,466.092 303.5,467C 300.62,467.684 297.787,467.517 295,466.5C 292.853,468.49 290.353,469.823 287.5,470.5C 287.624,471.107 287.957,471.44 288.5,471.5C 286.156,471.94 284.156,472.94 282.5,474.5C 279.918,474.025 277.918,474.692 276.5,476.5C 269.625,474.939 262.625,473.939 255.5,473.5C 246.899,471.739 238.565,469.405 230.5,466.5C 228.562,464.837 226.228,464.171 223.5,464.5C 220.848,464.59 218.515,463.924 216.5,462.5C 214.924,461.717 213.591,460.55 212.5,459C 207.829,458.462 203.162,457.962 198.5,457.5C 192.956,454.781 186.956,453.115 180.5,452.5C 178.485,451.076 176.152,450.41 173.5,450.5C 168.073,449.477 162.74,448.143 157.5,446.5C 156.462,444.481 155.128,444.147 153.5,445.5C 152.508,452.982 152.175,460.648 152.5,468.5C 119.167,468.5 85.8333,468.5 52.5,468.5C 52.5,407.167 52.5,345.833 52.5,284.5C 98.5194,284.192 144.519,284.525 190.5,285.5 Z M 88.5,318.5 C 98.8333,318.5 109.167,318.5 119.5,318.5C 119.5,357.5 119.5,396.5 119.5,435.5C 108.5,435.5 97.5,435.5 86.5,435.5C 86.5,396.833 86.5,358.167 86.5,319.5C 86.8417,318.662 87.5084,318.328 88.5,318.5 Z M 187.5,320.5 C 187.833,320.5 188.167,320.5 188.5,320.5C 196.856,324.401 205.523,327.734 214.5,330.5C 214.833,330.5 215.167,330.5 215.5,330.5C 222.541,333.738 229.874,336.405 237.5,338.5C 237.842,339.338 238.508,339.672 239.5,339.5C 243.655,341.402 247.989,343.069 252.5,344.5C 252.833,344.5 253.167,344.5 253.5,344.5C 256.54,346.346 259.873,347.679 263.5,348.5C 263.833,348.5 264.167,348.5 264.5,348.5C 270.757,351.147 277.09,353.814 283.5,356.5C 285.683,359.864 287.016,363.53 287.5,367.5C 278.491,367.374 269.491,367.041 260.5,366.5C 260.167,366.5 259.833,366.5 259.5,366.5C 251.166,365.001 242.832,363.001 234.5,360.5C 231.061,358.796 227.395,357.462 223.5,356.5C 219.144,354.547 214.644,352.88 210,351.5C 209.055,351.905 208.388,352.572 208,353.5C 206.515,358.108 205.348,362.774 204.5,367.5C 203.076,369.515 202.41,371.848 202.5,374.5C 200.398,377.908 199.731,381.575 200.5,385.5C 206.45,387.705 212.45,389.705 218.5,391.5C 218.833,391.5 219.167,391.5 219.5,391.5C 225.941,394.204 232.608,396.537 239.5,398.5C 240.167,398.5 240.833,398.5 241.5,398.5C 246.182,400.474 251.182,401.641 256.5,402C 290.832,402.5 325.165,402.667 359.5,402.5C 363.705,404.364 367.372,407.03 370.5,410.5C 366.969,411.975 363.302,413.308 359.5,414.5C 351.215,416.595 343.215,419.262 335.5,422.5C 329.834,423.39 324.5,425.057 319.5,427.5C 309.508,429.743 299.841,432.743 290.5,436.5C 285.835,437.057 281.502,438.39 277.5,440.5C 272.843,441.741 268.177,441.741 263.5,440.5C 256.733,438.055 249.733,436.055 242.5,434.5C 242.167,434.5 241.833,434.5 241.5,434.5C 237.383,432.797 233.05,431.463 228.5,430.5C 226.883,429.962 225.216,429.629 223.5,429.5C 218.722,427.721 213.722,426.387 208.5,425.5C 197.76,421.926 186.76,418.926 175.5,416.5C 168.733,414.055 161.733,412.055 154.5,410.5C 154.5,379.833 154.5,349.167 154.5,318.5C 163.839,318.334 173.173,318.5 182.5,319C 184.154,319.608 185.821,320.108 187.5,320.5 Z"/></g>
<g><path style="opacity:0.004" fill="#fefffe" d="M 266.5,286.5 C 267.833,287.167 267.833,287.167 266.5,286.5 Z"/></g>
<g><path style="opacity:0.004" fill="#fefffe" d="M 265.5,289.5 C 266.833,290.167 266.833,290.167 265.5,289.5 Z"/></g>
<g><path style="opacity:1" fill="#e85e5c" d="M 335.5,288.5 C 333.5,291.167 331.167,293.5 328.5,295.5C 328.5,293.833 328.5,292.167 328.5,290.5C 330.929,290.116 333.263,289.449 335.5,288.5 Z"/></g>
<g><path style="opacity:0.004" fill="#fefffe" d="M 247.5,294.5 C 248.833,295.167 248.833,295.167 247.5,294.5 Z"/></g>
<g><path style="opacity:0.973" fill="#d5625e" d="M 284.5,297.5 C 286.411,298.075 288.078,299.075 289.5,300.5C 290.6,301.605 291.267,302.938 291.5,304.5C 288.833,302.5 286.5,300.167 284.5,297.5 Z"/></g>
<g><path style="opacity:1" fill="#e95e5b" d="M 225.5,298.5 C 231.129,299.929 236.463,301.929 241.5,304.5C 238.639,304.658 235.972,303.992 233.5,302.5C 232.558,302.608 231.725,302.941 231,303.5C 229.594,301.256 227.761,299.59 225.5,298.5 Z"/></g>
<g><path style="opacity:1" fill="#f7595a" d="M 314.5,309.5 C 312.451,312.55 309.784,314.883 306.5,316.5C 305.167,316.167 303.833,315.833 302.5,315.5C 298.5,312.167 294.833,308.5 291.5,304.5C 291.267,302.938 290.6,301.605 289.5,300.5C 290.117,300.389 290.617,300.056 291,299.5C 291.862,301.087 292.529,302.754 293,304.5C 293.853,302.875 294.853,302.542 296,303.5C 296,304.833 296,306.167 296,307.5C 297.648,306.283 299.481,305.45 301.5,305C 300.304,304.346 300.304,303.846 301.5,303.5C 305.633,305.974 309.966,307.974 314.5,309.5 Z"/></g>
<g><path style="opacity:1" fill="#ee5c5a" d="M 241.5,304.5 C 246.534,305.398 251.201,307.065 255.5,309.5C 251.476,308.531 247.476,308.364 243.5,309C 247.531,306.794 247.364,306.294 243,307.5C 242.487,306.473 241.987,305.473 241.5,304.5 Z"/></g>
<g><path style="opacity:0.004" fill="#fefffe" d="M 318.5,309.5 C 319.833,310.167 319.833,310.167 318.5,309.5 Z"/></g>
<g><path style="opacity:0.004" fill="#fefffe" d="M 30.5,314.5 C 31.8333,315.167 31.8333,315.167 30.5,314.5 Z"/></g>
<g><path style="opacity:1" fill="#f05c5f" d="M 119.5,317.5 C 108.986,317.172 98.6532,317.506 88.5,318.5C 87.5084,318.328 86.8417,318.662 86.5,319.5C 85.3079,318.434 85.6412,317.601 87.5,317C 98.3414,316.175 109.008,316.341 119.5,317.5 Z"/></g>
<g><path style="opacity:0.72" fill="#d45f68" d="M 302.5,315.5 C 303.833,315.833 305.167,316.167 306.5,316.5C 305.001,318.802 303.668,318.469 302.5,315.5 Z"/></g>
<g><path style="opacity:1" fill="#ec5d5c" d="M 255.5,309.5 C 269.109,313.98 282.442,318.98 295.5,324.5C 291.78,324.436 288.114,323.936 284.5,323C 281.439,319.201 277.605,318.034 273,319.5C 272.517,318.552 272.351,317.552 272.5,316.5C 270.738,316.357 269.071,316.691 267.5,317.5C 267.935,316.038 267.102,315.038 265,314.5C 262.804,315.09 260.638,315.757 258.5,316.5C 257.098,316.135 256.098,315.301 255.5,314C 256.722,312.437 256.722,310.937 255.5,309.5 Z"/></g>
<g><path style="opacity:1" fill="#f05b5b" d="M 188.5,320.5 C 192.221,321.188 195.888,322.188 199.5,323.5C 201.055,323.278 202.389,322.611 203.5,321.5C 204.354,322.522 205.354,323.355 206.5,324C 206.043,324.414 205.709,324.914 205.5,325.5C 207.828,326.724 210.161,326.724 212.5,325.5C 213.604,326.631 213.271,327.465 211.5,328C 212.942,328.377 213.942,329.21 214.5,330.5C 205.523,327.734 196.856,324.401 188.5,320.5 Z"/></g>
<g><path style="opacity:0.004" fill="#fefffe" d="M 445.5,327.5 C 446.833,328.167 446.833,328.167 445.5,327.5 Z"/></g>
<g><path style="opacity:1" fill="#f15b5d" d="M 237.5,338.5 C 229.874,336.405 222.541,333.738 215.5,330.5C 218.421,330.854 220.754,329.854 222.5,327.5C 225.645,329.478 228.312,331.978 230.5,335C 233.303,335.615 235.636,336.782 237.5,338.5 Z"/></g>
<g><path style="opacity:0.992" fill="#e05d5c" d="M 187.5,320.5 C 185.821,320.108 184.154,319.608 182.5,319C 173.173,318.5 163.839,318.334 154.5,318.5C 154.5,349.167 154.5,379.833 154.5,410.5C 161.733,412.055 168.733,414.055 175.5,416.5C 167.925,415.064 160.425,413.397 153,411.5C 152.333,380.5 152.333,349.5 153,318.5C 157.414,317.199 162.081,316.532 167,316.5C 171.5,316.667 176,316.833 180.5,317C 183.281,317.522 185.615,318.689 187.5,320.5 Z"/></g>
<g><path style="opacity:1" fill="#ef5c5c" d="M 252.5,344.5 C 247.989,343.069 243.655,341.402 239.5,339.5C 242.482,339.963 245.482,340.296 248.5,340.5C 248.5,339.5 248.5,338.5 248.5,337.5C 249.675,337.281 250.675,337.614 251.5,338.5C 250.359,339.425 250.359,340.259 251.5,341C 250.833,341.333 250.167,341.667 249.5,342C 250.942,342.377 251.942,343.21 252.5,344.5 Z"/></g>
<g><path style="opacity:1" fill="#ed5c5f" d="M 253.5,344.5 C 257.69,343.973 261.023,345.306 263.5,348.5C 259.873,347.679 256.54,346.346 253.5,344.5 Z"/></g>
<g><path style="opacity:0.004" fill="#fefffe" d="M 424.5,345.5 C 425.833,346.167 425.833,346.167 424.5,345.5 Z"/></g>
<g><path style="opacity:1" fill="#ee5b5c" d="M 296.5,324.5 C 313.06,333.936 321.726,348.269 322.5,367.5C 335.344,367.171 348.011,367.505 360.5,368.5C 347.496,368.333 334.496,368.5 321.5,369C 321,369.5 320.5,370 320,370.5C 321.101,363.722 320.434,357.055 318,350.5C 317.692,351.308 317.192,351.975 316.5,352.5C 314.854,351.098 313.854,349.264 313.5,347C 315.125,344.729 314.791,342.896 312.5,341.5C 309.448,343.254 307.614,345.921 307,349.5C 306.009,348.57 305.509,347.404 305.5,346C 306.819,343.675 308.152,341.342 309.5,339C 308.207,338.51 306.873,338.343 305.5,338.5C 305.5,336.833 305.5,335.167 305.5,333.5C 303.508,333.672 301.842,333.005 300.5,331.5C 298.697,329.381 297.364,327.048 296.5,324.5 Z"/></g>
<g><path style="opacity:1" fill="#e95c5d" d="M 264.5,348.5 C 266.857,348.337 269.19,348.503 271.5,349C 271.167,349.333 270.833,349.667 270.5,350C 272.167,350.333 273.833,350.667 275.5,351C 278.768,352.12 281.435,353.954 283.5,356.5C 277.09,353.814 270.757,351.147 264.5,348.5 Z"/></g>
<g><path style="opacity:0.004" fill="#fefffe" d="M 417.5,349.5 C 418.833,350.167 418.833,350.167 417.5,349.5 Z"/></g>
<g><path style="opacity:1" fill="#e05d5f" d="M 283.5,356.5 C 285.433,357.642 286.933,359.308 288,361.5C 288.789,363.712 288.622,365.712 287.5,367.5C 287.016,363.53 285.683,359.864 283.5,356.5 Z"/></g>
<g><path style="opacity:0.929" fill="#e35e63" d="M 223.5,356.5 C 227.395,357.462 231.061,358.796 234.5,360.5C 230.292,360.323 226.626,358.99 223.5,356.5 Z"/></g>
<g><path style="opacity:1" fill="#e25e5e" d="M 234.5,360.5 C 242.832,363.001 251.166,365.001 259.5,366.5C 250.531,366.506 242.197,364.506 234.5,360.5 Z"/></g>
<g><path style="opacity:0.004" fill="#fefffe" d="M 469.5,366.5 C 470.833,367.167 470.833,367.167 469.5,366.5 Z"/></g>
<g><path style="opacity:0.588" fill="#d95f60" d="M 88.5,318.5 C 98.6532,317.506 108.986,317.172 119.5,317.5C 120.833,356.833 120.833,396.167 119.5,435.5C 119.5,396.5 119.5,357.5 119.5,318.5C 109.167,318.5 98.8333,318.5 88.5,318.5 Z"/></g>
<g><path style="opacity:1" fill="#e35e5d" d="M 260.5,366.5 C 269.491,367.041 278.491,367.374 287.5,367.5C 283.18,368.166 278.68,368.499 274,368.5C 269.114,368.493 264.614,367.826 260.5,366.5 Z"/></g>
<g><path style="opacity:0.004" fill="#fefffe" d="M 405.5,368.5 C 406.833,369.167 406.833,369.167 405.5,368.5 Z"/></g>
<g><path style="opacity:0.984" fill="#dd6161" d="M 362.5,368.5 C 365.829,368.215 368.829,368.882 371.5,370.5C 368.123,370.932 365.123,370.265 362.5,368.5 Z"/></g>
<g><path style="opacity:0.902" fill="#df5e5d" d="M 204.5,367.5 C 204.829,370.228 204.163,372.562 202.5,374.5C 202.41,371.848 203.076,369.515 204.5,367.5 Z"/></g>
<g><path style="opacity:1" fill="#e15d5e" d="M 372.5,370.5 C 377.764,371.799 382.431,374.132 386.5,377.5C 381.18,376.173 376.513,373.84 372.5,370.5 Z"/></g>
<g><path style="opacity:0.804" fill="#d96162" d="M 389.5,379.5 C 392.167,381.5 394.5,383.833 396.5,386.5C 393.167,385.167 390.833,382.833 389.5,379.5 Z"/></g>
<g><path style="opacity:1" fill="#e85b5e" d="M 202.5,374.5 C 202.567,376.401 202.233,378.234 201.5,380C 202.591,381.762 203.591,383.596 204.5,385.5C 208.415,386.958 212.415,388.124 216.5,389C 217.381,389.708 218.047,390.542 218.5,391.5C 212.45,389.705 206.45,387.705 200.5,385.5C 199.731,381.575 200.398,377.908 202.5,374.5 Z"/></g>
<g><path style="opacity:0.957" fill="#de6163" d="M 219.5,391.5 C 224.614,392.195 229.614,393.362 234.5,395C 236.596,395.737 238.263,396.903 239.5,398.5C 232.608,396.537 225.941,394.204 219.5,391.5 Z"/></g>
<g><path style="opacity:0.004" fill="#fefffe" d="M 21.5,392.5 C 22.8333,393.167 22.8333,393.167 21.5,392.5 Z"/></g>
<g><path style="opacity:0.004" fill="#fefffe" d="M 4.5,394.5 C 5.83333,395.167 5.83333,395.167 4.5,394.5 Z"/></g>
<g><path style="opacity:1" fill="#e36160" d="M 241.5,398.5 C 244.722,398.108 247.722,398.608 250.5,400C 286.5,400.333 322.5,400.667 358.5,401C 359.056,401.383 359.389,401.883 359.5,402.5C 325.165,402.667 290.832,402.5 256.5,402C 251.182,401.641 246.182,400.474 241.5,398.5 Z"/></g>
<g><path style="opacity:1" fill="#f05b5d" d="M 370.5,410.5 C 367.372,407.03 363.705,404.364 359.5,402.5C 361.371,402.141 362.871,401.141 364,399.5C 366.333,402.639 368.499,406.306 370.5,410.5 Z"/></g>
<g><path style="opacity:0.004" fill="#fefffe" d="M 432.5,404.5 C 433.833,405.167 433.833,405.167 432.5,404.5 Z"/></g>
<g><path style="opacity:1" fill="#eb5c5e" d="M 403.5,400.5 C 405.875,405.089 406.875,410.089 406.5,415.5C 404.125,410.911 403.125,405.911 403.5,400.5 Z"/></g>
<g><path style="opacity:0.004" fill="#fefffe" d="M 1.5,416.5 C 2.83333,417.167 2.83333,417.167 1.5,416.5 Z"/></g>
<g><path style="opacity:1" fill="#e95d5c" d="M 359.5,414.5 C 357.71,415.761 356.043,417.261 354.5,419C 352.965,419.496 351.465,419.33 350,418.5C 347.683,419.826 345.349,421.16 343,422.5C 340.712,422.263 338.212,422.263 335.5,422.5C 343.215,419.262 351.215,416.595 359.5,414.5 Z"/></g>
<g><path style="opacity:1" fill="#ec5c5d" d="M 175.5,416.5 C 186.76,418.926 197.76,421.926 208.5,425.5C 200.225,424.015 191.892,423.015 183.5,422.5C 183.5,421.5 183.5,420.5 183.5,419.5C 180.422,419.38 177.755,418.38 175.5,416.5 Z"/></g>
<g><path style="opacity:1" fill="#e55d60" d="M 335.5,422.5 C 330.5,424.943 325.166,426.61 319.5,427.5C 324.5,425.057 329.834,423.39 335.5,422.5 Z"/></g>
<g><path style="opacity:0.953" fill="#e06064" d="M 208.5,425.5 C 213.722,426.387 218.722,427.721 223.5,429.5C 218.002,429.54 213.002,428.207 208.5,425.5 Z"/></g>
<g><path style="opacity:1" fill="#e35e5d" d="M 228.5,430.5 C 233.05,431.463 237.383,432.797 241.5,434.5C 236.325,435.338 231.992,434.004 228.5,430.5 Z"/></g>
<g><path style="opacity:0.992" fill="#e45c5e" d="M 319.5,427.5 C 310.163,431.323 300.496,434.323 290.5,436.5C 299.841,432.743 309.508,429.743 319.5,427.5 Z"/></g>
<g><path style="opacity:1" fill="#e76062" d="M 406.5,435.5 C 402.902,437.74 398.902,439.074 394.5,439.5C 395.148,437.914 395.648,436.247 396,434.5C 397.009,435.658 398.342,436.325 400,436.5C 402.187,436.212 404.354,435.878 406.5,435.5 Z"/></g>
<g><path style="opacity:0.984" fill="#e35c5d" d="M 290.5,436.5 C 286.498,438.61 282.165,439.943 277.5,440.5C 281.502,438.39 285.835,437.057 290.5,436.5 Z"/></g>
<g><path style="opacity:0.941" fill="#e55e5d" d="M 242.5,434.5 C 249.733,436.055 256.733,438.055 263.5,440.5C 259.698,440.634 256.032,439.967 252.5,438.5C 251.228,438.57 250.062,438.903 249,439.5C 247.033,437.449 244.866,435.782 242.5,434.5 Z"/></g>
<g><path style="opacity:1" fill="#eb5d5f" d="M 391.5,440.5 C 385.407,442.946 379.074,444.946 372.5,446.5C 375.142,443.683 378.475,442.183 382.5,442C 382.93,441.08 383.264,440.247 383.5,439.5C 386.084,440.393 388.751,440.726 391.5,440.5 Z"/></g>
<g><path style="opacity:0.004" fill="#fefffe" d="M 480.5,439.5 C 481.833,440.167 481.833,440.167 480.5,439.5 Z"/></g>
<g><path style="opacity:0.114" fill="#ca625d" d="M 157.5,446.5 C 156.504,446.586 155.671,446.252 155,445.5C 154.829,453.677 154.329,461.677 153.5,469.5C 153.5,461.5 153.5,453.5 153.5,445.5C 155.128,444.147 156.462,444.481 157.5,446.5 Z"/></g>
<g><path style="opacity:1" fill="#ea5d5e" d="M 372.5,446.5 C 362.386,450.204 352.053,453.537 341.5,456.5C 342.141,455.518 342.807,454.518 343.5,453.5C 350.182,451.774 356.849,449.774 363.5,447.5C 366.428,446.516 369.428,446.183 372.5,446.5 Z"/></g>
<g><path style="opacity:0.882" fill="#de6263" d="M 173.5,450.5 C 176.152,450.41 178.485,451.076 180.5,452.5C 177.848,452.59 175.515,451.924 173.5,450.5 Z"/></g>
<g><path style="opacity:0.945" fill="#e55e62" d="M 180.5,452.5 C 186.956,453.115 192.956,454.781 198.5,457.5C 192.231,456.435 186.231,454.769 180.5,452.5 Z"/></g>
<g><path style="opacity:1" fill="#f8575c" d="M 340.5,456.5 C 337.45,458.101 334.116,459.101 330.5,459.5C 329.833,459.5 329.167,459.5 328.5,459.5C 325.791,457.491 322.791,455.825 319.5,454.5C 323.774,453.912 328.108,453.912 332.5,454.5C 332.5,455.5 332.5,456.5 332.5,457.5C 335.127,456.908 337.794,456.575 340.5,456.5 Z"/></g>
<g><path style="opacity:1" fill="#eb5c60" d="M 198.5,457.5 C 203.162,457.962 207.829,458.462 212.5,459C 213.591,460.55 214.924,461.717 216.5,462.5C 210.231,461.435 204.231,459.769 198.5,457.5 Z"/></g>
<g><path style="opacity:0.941" fill="#df615f" d="M 328.5,459.5 C 329.167,459.5 329.833,459.5 330.5,459.5C 325.5,461.943 320.166,463.61 314.5,464.5C 318.786,462.384 323.453,460.718 328.5,459.5 Z"/></g>
<g><path style="opacity:0.851" fill="#dd6060" d="M 223.5,464.5 C 226.228,464.171 228.562,464.837 230.5,466.5C 227.848,466.59 225.515,465.924 223.5,464.5 Z"/></g>
<g><path style="opacity:0.004" fill="#fefffe" d="M 42.5,466.5 C 43.8333,467.167 43.8333,467.167 42.5,466.5 Z"/></g>
<g><path style="opacity:0.977" fill="#ec5a5a" d="M 153.5,445.5 C 153.5,453.5 153.5,461.5 153.5,469.5C 119.833,469.5 86.1667,469.5 52.5,469.5C 52.5,469.167 52.5,468.833 52.5,468.5C 85.8333,468.5 119.167,468.5 152.5,468.5C 152.175,460.648 152.508,452.982 153.5,445.5 Z"/></g>
<g><path style="opacity:1" fill="#f7585c" d="M 314.5,464.5 C 307.508,467.607 300.174,469.941 292.5,471.5C 291.167,471.5 289.833,471.5 288.5,471.5C 287.957,471.44 287.624,471.107 287.5,470.5C 290.353,469.823 292.853,468.49 295,466.5C 297.787,467.517 300.62,467.684 303.5,467C 301.561,466.092 300.561,464.592 300.5,462.5C 302.484,462.383 304.15,463.05 305.5,464.5C 308.319,464.258 311.319,464.258 314.5,464.5 Z"/></g>
<g><path style="opacity:0.957" fill="#e0625f" d="M 288.5,471.5 C 289.833,471.5 291.167,471.5 292.5,471.5C 289.495,473.277 286.162,474.277 282.5,474.5C 284.156,472.94 286.156,471.94 288.5,471.5 Z"/></g>
<g><path style="opacity:1" fill="#e95e61" d="M 255.5,473.5 C 262.625,473.939 269.625,474.939 276.5,476.5C 275.088,477.533 273.422,478.199 271.5,478.5C 265.955,477.121 260.621,475.454 255.5,473.5 Z"/></g>
<g><path style="opacity:0.894" fill="#e85f65" d="M 282.5,474.5 C 280.786,475.738 278.786,476.405 276.5,476.5C 277.918,474.692 279.918,474.025 282.5,474.5 Z"/></g>
<g><path style="opacity:0.004" fill="#fefffe" d="M 418.5,478.5 C 419.833,479.167 419.833,479.167 418.5,478.5 Z"/></g>
</svg>
